<?xml version="1.0" encoding="UTF-8"?>
<svg id="Layer_2" data-name="Layer 2" xmlns="http://www.w3.org/2000/svg" viewBox="0 0 407.21 91.6">
  <defs>
    <style>
      .cls-1 {
        fill: #50bdf7;
      }

      .cls-1, .cls-2, .cls-3 {
        stroke-width: 0px;
      }

      .cls-2 {
        fill: #2267af;
      }

      .cls-3 {
        fill: #fe5f63;
      }
    </style>
  </defs>
  <g id="Layer_1-2" data-name="Layer 1">
    <g>
      <g>
        <path class="cls-2" d="m126.34,62.95c-.33,0-.62-.12-.88-.37-.26-.24-.39-.55-.39-.91v-31.75c0-.36.13-.66.39-.91.26-.25.55-.37.88-.37h13.96c4.44,0,7.93,1.01,10.46,3.04,2.53,2.03,3.8,4.85,3.8,8.48,0,2.29-.52,4.23-1.57,5.83-1.05,1.6-2.42,2.86-4.12,3.77l6.37,11.56c.1.2.15.38.15.54,0,.29-.1.55-.29.76-.2.21-.44.32-.74.32h-8.28c-.62,0-1.09-.15-1.42-.47-.33-.31-.54-.6-.64-.86l-4.9-10.09h-3.53v10.14c0,.36-.12.66-.37.91-.25.25-.55.37-.91.37h-7.99Zm9.26-19.5h4.65c1.14,0,1.99-.32,2.55-.96.56-.64.83-1.43.83-2.38s-.27-1.81-.81-2.5c-.54-.69-1.4-1.03-2.57-1.03h-4.65v6.86Z"/>
        <path class="cls-2" d="m161.87,62.95c-.33,0-.62-.12-.88-.37-.26-.24-.39-.55-.39-.91v-31.75c0-.36.13-.66.39-.91.26-.25.55-.37.88-.37h24.01c.36,0,.67.12.93.37.26.25.39.55.39.91v5.78c0,.33-.13.62-.39.88s-.57.39-.93.39h-15.14v4.85h14.06c.36,0,.67.12.93.37.26.25.39.55.39.91v5.29c0,.36-.13.66-.39.91-.26.25-.57.37-.93.37h-14.06v4.95h15.53c.36,0,.67.13.93.39.26.26.39.57.39.93v5.73c0,.36-.13.66-.39.91-.26.25-.57.37-.93.37h-24.4Z"/>
        <path class="cls-2" d="m207.05,63.44c-3.43,0-6.28-.48-8.55-1.45-2.27-.96-3.97-2.22-5.1-3.77-1.13-1.55-1.72-3.19-1.79-4.92,0-.29.1-.54.29-.74s.44-.29.73-.29h7.79c.46,0,.82.07,1.08.22.26.15.54.35.83.61.29.36.64.69,1.03,1,.39.31.9.56,1.52.74.62.18,1.34.27,2.16.27,1.5,0,2.66-.2,3.48-.61.82-.41,1.23-.97,1.23-1.69,0-.56-.22-1.01-.66-1.37-.44-.36-1.18-.69-2.23-.98-1.05-.29-2.47-.6-4.26-.93-2.52-.42-4.69-1.05-6.52-1.89-1.83-.83-3.23-1.96-4.19-3.38-.96-1.42-1.45-3.18-1.45-5.27s.6-4,1.79-5.64c1.19-1.63,2.86-2.91,5-3.82,2.14-.91,4.63-1.37,7.47-1.37,2.35,0,4.43.31,6.25.93,1.81.62,3.34,1.43,4.58,2.43,1.24,1,2.19,2.07,2.84,3.21.65,1.14,1,2.24,1.03,3.28,0,.29-.11.55-.32.76-.21.21-.45.32-.71.32h-8.18c-.39,0-.72-.07-.98-.2-.26-.13-.52-.34-.78-.64-.16-.46-.57-.87-1.23-1.23-.65-.36-1.49-.54-2.5-.54-1.11,0-1.96.19-2.55.56-.59.38-.88.92-.88,1.64,0,.49.18.92.54,1.27.36.36,1,.68,1.91.96.91.28,2.19.58,3.82.91,3.1.46,5.61,1.11,7.52,1.96,1.91.85,3.31,1.96,4.19,3.33.88,1.37,1.32,3.09,1.32,5.15,0,2.32-.67,4.31-2.01,5.98-1.34,1.67-3.18,2.95-5.51,3.85-2.34.9-5.01,1.35-8.01,1.35Z"/>
        <path class="cls-2" d="m242.72,63.44c-3.04,0-5.71-.47-8.01-1.42-2.3-.95-4.1-2.43-5.39-4.43-1.29-2.01-1.94-4.55-1.94-7.62v-20.04c0-.36.13-.66.39-.91.26-.25.55-.37.88-.37h7.99c.36,0,.66.12.91.37s.37.55.37.91v19.89c0,1.67.41,2.92,1.23,3.77.82.85,1.99,1.27,3.53,1.27s2.7-.42,3.5-1.27c.8-.85,1.2-2.11,1.2-3.77v-19.89c0-.36.13-.66.39-.91.26-.25.57-.37.93-.37h7.94c.36,0,.66.12.91.37.25.25.37.55.37.91v20.04c0,3.07-.64,5.61-1.91,7.62-1.27,2.01-3.05,3.49-5.34,4.43-2.29.95-4.93,1.42-7.94,1.42Z"/>
        <path class="cls-2" d="m265.94,62.95c-.36,0-.67-.12-.93-.37-.26-.24-.39-.55-.39-.91v-31.75c0-.36.13-.66.39-.91.26-.25.57-.37.93-.37h6.52c.59,0,1.03.16,1.32.49.29.33.49.56.59.69l7.84,13.62,7.84-13.62c.1-.13.29-.36.59-.69.29-.33.73-.49,1.32-.49h6.52c.36,0,.66.12.91.37.24.25.37.55.37.91v31.75c0,.36-.12.66-.37.91s-.55.37-.91.37h-7.35c-.36,0-.66-.12-.91-.37-.25-.24-.37-.55-.37-.91v-15.88l-4.41,7.74c-.16.26-.38.52-.64.78s-.64.39-1.13.39h-2.99c-.46,0-.82-.13-1.08-.39-.26-.26-.47-.52-.64-.78l-4.41-7.74v15.88c0,.36-.12.66-.37.91s-.55.37-.91.37h-7.35Z"/>
        <path class="cls-2" d="m305,62.95c-.29,0-.54-.11-.73-.32-.2-.21-.29-.47-.29-.76,0-.13.02-.25.05-.34l11.17-31.36c.13-.36.36-.7.69-1.03.33-.33.78-.49,1.37-.49h8.97c.62,0,1.09.16,1.42.49.33.33.54.67.64,1.03l11.22,31.36c.03.1.05.21.05.34,0,.29-.11.55-.32.76-.21.21-.47.32-.76.32h-7.55c-.56,0-.96-.13-1.22-.39-.26-.26-.44-.51-.54-.73l-1.52-4.12h-11.81l-1.52,4.12c-.1.23-.27.47-.51.73-.24.26-.66.39-1.25.39h-7.55Zm13.08-13.52h7.3l-3.68-11.02-3.63,11.02Z"/>
        <path class="cls-2" d="m344.93,62.95c-.33,0-.62-.12-.88-.37-.26-.24-.39-.55-.39-.91v-31.75c0-.36.13-.66.39-.91.26-.25.55-.37.88-.37h13.43c3.17,0,5.91.51,8.23,1.54,2.32,1.03,4.15,2.54,5.49,4.53,1.34,1.99,2.06,4.44,2.16,7.35.07,1.4.1,2.65.1,3.72s-.03,2.3-.1,3.67c-.13,3.07-.83,5.6-2.08,7.6-1.26,1.99-3.03,3.47-5.32,4.43-2.29.96-5.03,1.45-8.23,1.45h-13.67Zm9.26-8.33h4.16c1.08,0,1.99-.18,2.74-.54.75-.36,1.34-.92,1.76-1.69.42-.77.65-1.76.69-2.96.03-.95.06-1.8.07-2.55.02-.75.02-1.5,0-2.25-.02-.75-.04-1.58-.07-2.5-.07-1.8-.58-3.1-1.54-3.92-.96-.82-2.26-1.23-3.9-1.23h-3.92v17.64Z"/>
        <path class="cls-2" d="m381.48,62.95c-.33,0-.62-.12-.88-.37-.26-.24-.39-.55-.39-.91v-31.75c0-.36.13-.66.39-.91.26-.25.55-.37.88-.37h24.01c.36,0,.67.12.93.37.26.25.39.55.39.91v5.78c0,.33-.13.62-.39.88s-.57.39-.93.39h-15.14v4.85h14.06c.36,0,.67.12.93.37.26.25.39.55.39.91v5.29c0,.36-.13.66-.39.91-.26.25-.57.37-.93.37h-14.06v4.95h15.53c.36,0,.67.13.93.39.26.26.39.57.39.93v5.73c0,.36-.13.66-.39.91-.26.25-.57.37-.93.37h-24.4Z"/>
      </g>
      <g>
        <path class="cls-2" d="m88.71,88.5c-4.3,4.2-10.72,4.16-15.66-.3-2.96-2.66-5.91-5.38-8.45-8.41-2.35-2.81-4.45-2.75-7.64-1.41-23.45,9.9-50.13-3.51-55.85-27.89C-3.25,31.95,5.49,12.99,22.29,4.5,39.44-4.15,59.61-.08,72.22,14.56c-1.44,1.48-3.86,4-7.97,8.25-1.01-1.08-1.98-2.22-3.05-3.24-10.69-10.22-27.61-10.78-39.04-1.31-11.6,9.61-14.1,26.5-5.76,38.91,8.29,12.34,24.57,16.65,37.79,10,11.92-6,17.28-17.01,15.65-32.15l9.32-9.12h.01c4.12,10.93,3.9,21.81-1.21,32.48-1.11,2.33-.51,3.54,1.09,5.06,3.24,3.09,6.48,6.2,9.49,9.5,4.57,5,4.54,11.29.17,15.56Z"/>
        <path class="cls-3" d="m46.92,31.08c-.04,4.64-4.38,8.75-9.14,8.65-4.59-.1-8.56-4.03-8.68-8.58-.11-4.48,4.33-9.02,8.85-9.06,4.42-.04,9.01,4.55,8.97,8.99Z"/>
        <path class="cls-1" d="m81.45,11.49c-1.78-2.2-2.93-.39-2.93-.39l-18.36,17.13-.09.1-3.17,2.95h0c-1.13,1.03-2.26,2.06-3.29,3.17-4.18,4.48-8.76,8.61-12.96,13.07-1.94,2.07-3.21,2.1-5.16.01-5.29-5.68-10.79-11.18-16.33-16.87-4.72,7.6-4.38,10.88,1.23,16.47,4.7,4.68,9.54,9.23,14.04,14.1,2.49,2.69,4.1,2.81,6.74.07.16-.17.33-.34.5-.51l-.5.96,14.83-15.42,11.46-11.91c.78-.82,1.6-1.61,2.44-2.38l2.7-2.47,3.49-3.19,3.17-2.9,2.8-2.56c.41-.52.73-1.01.98-1.49,1.86-3.49-.03-6.01-1.59-7.94Z"/>
      </g>
    </g>
  </g>
</svg>